{"title":"Europe - 1982-1992 (Best of) [TNTVillage]","uid":5374555,"size":596733290,"categoryP":"audio","categoryS":"flac","magnet":"?xt=urn:btih:e362a277cb78f933df0e45a2d126e9eee9cf4a7b&amp;dn=Europe+-+1982-1992+%28Best+of%29+%5BTNTVillage%5D&amp;tr=udp%3A%2F%2Ftracker.openbittorrent.com%3A80&amp;tr=udp%3A%2F%2Fopen.demonii.com%3A1337&amp;tr=udp%3A%2F%2Ftracker.coppersurfer.tk%3A6969&amp;tr=udp%3A%2F%2Fexodus.desync.com%3A6969","seeders":1,"leechers":0,"uploader":"max_tnt","files":21,"time":1266530672,"description":"EAC extraction logfile from 9. February 2008, 16:47 for CD\nEurope / Best Of Europe [1982-1992]\n\nUsed drive  : PIONEER DVD-RW  DVR-111D   Adapter: 0  ID: 3\nRead mode   : Secure with NO C2, accurate stream, disable cache\nRead offset correction : 48\nOverread into Lead-In and Lead-Out : No\n\nUsed output format : C:Program FilesExact Audio CopyFlac 1.1.4flac.exe   (User Defined Encoder)\n                     320 kBit/s\n                     Additional command line options : -8 -V -T &quot;artist=%a&quot; -T &quot;title=%t&quot; -T &quot;album=%g&quot; -T &quot;date=%y&quot; -T &quot;tracknumber=%n&quot; -T &quot;genre=%m&quot; %s\n\nOther options      : \n    Fill up missing offset samples with silence : Yes\n    Delete leading and trailing silent blocks : No\n    Installed external ASPI interface\n\n\nTrack  1\n     Filename F:Europe\u0001 - In The Future To Come.wav\n\n     Pre-gap length  0:00:02.00\n\n     Peak level 99.2 %\n     Track quality 99.9 %\n     Test CRC BED8B943\n     Copy CRC BED8B943\n     Copy OK\n\nTrack  2\n     Filename F:Europe\u0002 - Seven Doors Hotel.wav\n\n     Peak level 99.2 %\n     Track quality 99.9 %\n     Test CRC 41D452CE\n     Copy CRC 41D452CE\n     Copy OK\n\nTrack  3\n     Filename F:Europe\u0003 - Stormwind.wav\n\n     Peak level 99.2 %\n     Track quality 100.0 %\n     Test CRC C60FC7AF\n     Copy CRC C60FC7AF\n     Copy OK\n\nTrack  4\n     Filename F:Europe\u0004 - Open Your Heart.wav\n\n     Peak level 99.2 %\n     Track quality 100.0 %\n     Test CRC 48670A71\n     Copy CRC 48670A71\n     Copy OK\n\nTrack  5\n     Filename F:Europe\u0005 - Scream Of Anger.wav\n\n     Peak level 99.2 %\n     Track quality 99.9 %\n     Test CRC DFA12621\n     Copy CRC DFA12621\n     Copy OK\n\nTrack  6\n     Filename F:Europe\u0006 - Dreamer.wav\n\n     Peak level 99.2 %\n     Track quality 99.9 %\n     Test CRC F1222F28\n     Copy CRC F1222F28\n     Copy OK\n\nTrack  7\n     Filename F:Europe\u0007 - The Final Countdown.wav\n\n     Peak level 99.2 %\n     Track quality 99.9 %\n     Test CRC 358ACB7A\n     Copy CRC 358ACB7A\n     Copy OK\n\nTrack  8\n     Filename F:Europe8 - On Broken Wings.wav\n\n     Peak level 99.2 %\n     Track quality 100.0 %\n     Test CRC 9DA3CDB1\n     Copy CRC 9DA3CDB1\n     Copy OK\n\nTrack  9\n     Filename F:Europe9 - Rock The Night.wav\n\n     Peak level 99.2 %\n     Track quality 100.0 %\n     Test CRC E4DA12EC\n     Copy CRC E4DA12EC\n     Copy OK\n\nTrack 10\n     Filename F:Europe\b - Carrie.wav\n\n     Peak level 99.2 %\n     Track quality 99.9 %\n     Test CRC 1ED39B7B\n     Copy CRC 1ED39B7B\n     Copy OK\n\nTrack 11\n     Filename F:Europe\t - Cherokee.wav\n\n     Peak level 99.2 %\n     Track quality 100.0 %\n     Test CRC F0E2DD90\n     Copy CRC F0E2DD90\n     Copy OK\n\nTrack 12\n     Filename F:Europe\n - Superstitious.wav\n\n     Peak level 99.2 %\n     Track quality 100.0 %\n     Test CRC 0241CA34\n     Copy CRC 0241CA34\n     Copy OK\n\nTrack 13\n     Filename F:Europe\u000b - Ready Or Not.wav\n\n     Peak level 99.2 %\n     Track quality 100.0 %\n     Test CRC 92DA802E\n     Copy CRC 92DA802E\n     Copy OK\n\nTrack 14\n     Filename F:Europe\f - Prisoners In Paradise.wav\n\n     Peak level 93.5 %\n     Track quality 100.0 %\n     Test CRC 8A339071\n     Copy CRC 8A339071\n     Copy OK\n\nTrack 15\n     Filename F:Europe\n - I'll Cry For You (acoustic version).wav\n\n     Peak level 99.2 %\n     Track quality 100.0 %\n     Test CRC 66AB4322\n     Copy CRC 66AB4322\n     Copy OK\n\nTrack 16\n     Filename F:Europe\u000e - Sweet Love Child (previously unreleased).wav\n\n     Peak level 99.2 %\n     Track quality 100.0 %\n     Test CRC EF64DADC\n     Copy CRC EF64DADC\n     Copy OK\n\nTrack 17\n     Filename F:Europe\u000f - Yesterday's News (previously unreleased).wav\n\n     Peak level 99.2 %\n     Track quality 99.9 %\n     Test CRC 03BD8488\n     Copy CRC 03BD8488\n     Copy OK\n\nNo errors occured\n\n\nEnd of status report\n","torrent":{"xt":"urn:btih:e362a277cb78f933df0e45a2d126e9eee9cf4a7b","amp;dn":"Europe+-+1982-1992+%28Best+of%29+%5BTNTVillage%5D","amp;tr":["udp%3A%2F%2Ftracker.openbittorrent.com%3A80","udp%3A%2F%2Fopen.demonii.com%3A1337","udp%3A%2F%2Ftracker.coppersurfer.tk%3A6969","udp%3A%2F%2Fexodus.desync.com%3A6969"],"infoHash":"e362a277cb78f933df0e45a2d126e9eee9cf4a7b","infoHashBuffer":{"type":"Buffer","data":[227,98,162,119,203,120,249,51,223,14,69,162,209,38,233,238,233,207,74,123]},"announce":[],"urlList":[]}}